<svg width="15" height="15" viewBox="0 0 15 15" fill="none" xmlns="http://www.w3.org/2000/svg">
<g id="392526_arrow_left_icon 1" clip-path="url(#clip0_214_373)">
<g id="Group">
<g id="Group_2">
<path id="Vector" d="M13.056 8.30374H1.69637C1.52316 8.30374 1.36652 8.19728 1.30021 8.03454C1.23389 7.87137 1.27054 7.68376 1.39314 7.55897L6.53672 2.32333C6.70426 2.15274 6.9752 2.15274 7.14274 2.32333C7.31028 2.49393 7.31028 2.76967 7.14274 2.94027L2.73128 7.43114H13.0555C13.2929 7.43114 13.4844 7.6266 13.4844 7.86744C13.4844 8.10828 13.2929 8.30374 13.056 8.30374Z" fill="white"/>
</g>
<g id="Group_3">
<path id="Vector_2" d="M6.84065 13.5394C6.73114 13.5394 6.62119 13.4966 6.53742 13.4115L3.10808 9.92112C2.94054 9.75052 2.94054 9.47478 3.10808 9.30418C3.27562 9.13359 3.54656 9.13359 3.7141 9.30418L7.14345 12.7946C7.31099 12.9652 7.31099 13.2409 7.14345 13.4115C7.06011 13.4966 6.95016 13.5394 6.84065 13.5394Z" fill="white"/>
</g>
</g>
</g>
<defs>
<clipPath id="clip0_214_373">
<rect width="13.9617" height="13.9617" fill="white" transform="translate(0.395508 0.886581)"/>
</clipPath>
</defs>
</svg>
