<svg width="15" height="15" viewBox="0 0 15 15" fill="none" xmlns="http://www.w3.org/2000/svg">
<g id="392526_arrow_left_icon 1" clip-path="url(#clip0_214_361)">
<g id="Group">
<g id="Group_2">
<path id="Vector" d="M2.05244 8.30374H13.412C13.5852 8.30374 13.7419 8.19728 13.8082 8.03454C13.8745 7.87137 13.8379 7.68376 13.7153 7.55897L8.57168 2.32333C8.40414 2.15274 8.1332 2.15274 7.96566 2.32333C7.79812 2.49393 7.79812 2.76967 7.96566 2.94027L12.3771 7.43114H2.05288C1.81553 7.43114 1.62399 7.6266 1.62399 7.86744C1.62399 8.10828 1.81553 8.30374 2.05244 8.30374Z" fill="white"/>
</g>
<g id="Group_3">
<path id="Vector_2" d="M8.26775 13.5394C8.37726 13.5394 8.48721 13.4966 8.57098 13.4115L12.0003 9.92112C12.1679 9.75052 12.1679 9.47478 12.0003 9.30418C11.8328 9.13359 11.5618 9.13359 11.3943 9.30418L7.96495 12.7946C7.79741 12.9652 7.79741 13.2409 7.96495 13.4115C8.04829 13.4966 8.15824 13.5394 8.26775 13.5394Z" fill="white"/>
</g>
</g>
</g>
<defs>
<clipPath id="clip0_214_361">
<rect width="13.9617" height="13.9617" fill="white" transform="matrix(-1 0 0 1 14.7129 0.886581)"/>
</clipPath>
</defs>
</svg>
