<svg width="18" height="19" viewBox="0 0 18 19" fill="none" xmlns="http://www.w3.org/2000/svg">
<g id="calendar (2) 1" clip-path="url(#clip0_225_311)">
<g id="Group">
<g id="_x31_5_38_">
<g id="Group_2">
<path id="Vector" d="M4.5569 4.49882H4.80011C5.16973 4.49882 5.46935 4.18147 5.46935 3.79022V1.83477V1.10334C5.46935 0.71209 5.16973 0.394775 4.80011 0.394775H4.5569C4.18731 0.394775 3.8877 0.71209 3.8877 1.10334V1.83481V3.79022C3.8877 4.18147 4.18731 4.49882 4.5569 4.49882Z" fill="#CACACA"/>
<path id="Vector_2" d="M13.14 4.48124H13.3832C13.7528 4.48124 14.0524 4.16393 14.0524 3.77264V1.64916V1.08573C14.0524 0.694512 13.7528 0.377197 13.3832 0.377197H13.14C12.7703 0.377197 12.4707 0.694512 12.4707 1.08573V1.64916V3.7726C12.4708 4.16393 12.7704 4.48124 13.14 4.48124Z" fill="#CACACA"/>
<path id="Vector_3" d="M16.3144 1.83472H14.5969V3.95815C14.5969 4.6665 14.0526 5.05719 13.3837 5.05719H13.1405C12.4715 5.05719 11.9273 4.48091 11.9273 3.77257V1.83472H6.01302V3.79012C6.01302 4.49847 5.46879 5.07475 4.79979 5.07475H4.55658C3.88763 5.07475 3.3434 4.49847 3.3434 3.79012V1.83472H1.49031C0.890416 1.83472 0.402344 2.3515 0.402344 2.98672V16.9068C0.402344 17.542 0.890416 18.0588 1.49031 18.0588H16.3144C16.9143 18.0588 17.4023 17.542 17.4023 16.9068V2.98672C17.4024 2.35154 16.9143 1.83472 16.3144 1.83472ZM16.3144 16.9068H1.49035L1.49031 6.39471H16.3146L16.3152 16.9067C16.3151 16.9067 16.3149 16.9068 16.3144 16.9068Z" fill="#CACACA"/>
<path id="Vector_4" d="M9.46444 9.92079H11.418C11.4954 9.92079 11.5582 9.85431 11.5582 9.77232V7.98123C11.5582 7.89924 11.4954 7.83276 11.418 7.83276H9.46444C9.387 7.83276 9.32422 7.89924 9.32422 7.98123V9.77232C9.32422 9.85431 9.387 9.92079 9.46444 9.92079Z" fill="#CACACA"/>
<path id="Vector_5" d="M12.6519 9.92079H14.6055C14.6829 9.92079 14.7457 9.85431 14.7457 9.77232V7.98123C14.7457 7.89924 14.6829 7.83276 14.6055 7.83276H12.6519C12.5745 7.83276 12.5117 7.89924 12.5117 7.98123V9.77232C12.5117 9.85431 12.5745 9.92079 12.6519 9.92079Z" fill="#CACACA"/>
<path id="Vector_6" d="M3.08749 12.853H5.04097C5.1184 12.853 5.18119 12.7865 5.18119 12.7045V10.9134C5.18119 10.8314 5.1184 10.7649 5.04097 10.7649H3.08749C3.01005 10.7649 2.94727 10.8314 2.94727 10.9134V12.7045C2.94727 12.7865 3.01005 12.853 3.08749 12.853Z" fill="#CACACA"/>
<path id="Vector_7" d="M6.27596 12.853H8.22944C8.30688 12.853 8.36966 12.7865 8.36966 12.7045V10.9134C8.36966 10.8314 8.30688 10.7649 8.22944 10.7649H6.27596C6.19853 10.7649 6.13574 10.8314 6.13574 10.9134V12.7045C6.13574 12.7865 6.19853 12.853 6.27596 12.853Z" fill="#CACACA"/>
<path id="Vector_8" d="M9.46444 12.853H11.4179C11.4954 12.853 11.5581 12.7865 11.5581 12.7045V10.9134C11.5581 10.8314 11.4954 10.7649 11.4179 10.7649H9.46444C9.387 10.7649 9.32422 10.8314 9.32422 10.9134V12.7045C9.32422 12.7865 9.387 12.853 9.46444 12.853Z" fill="#CACACA"/>
<path id="Vector_9" d="M12.6519 12.853H14.6055C14.6829 12.853 14.7457 12.7865 14.7457 12.7045V10.9134C14.7457 10.8314 14.6829 10.7649 14.6055 10.7649H12.6519C12.5745 10.7649 12.5117 10.8314 12.5117 10.9134V12.7045C12.5117 12.7865 12.5745 12.853 12.6519 12.853Z" fill="#CACACA"/>
<path id="Vector_10" d="M5.04191 13.6973H3.08846C3.01103 13.6973 2.94824 13.7637 2.94824 13.8457V15.6369C2.94824 15.7189 3.01103 15.7853 3.08846 15.7853H5.04194C5.11938 15.7853 5.18216 15.7189 5.18216 15.6369V13.8457C5.18213 13.7637 5.11934 13.6973 5.04191 13.6973Z" fill="#CACACA"/>
<path id="Vector_11" d="M8.22944 13.6973H6.27596C6.19853 13.6973 6.13574 13.7637 6.13574 13.8457V15.6369C6.13574 15.7189 6.19853 15.7853 6.27596 15.7853H8.22944C8.30688 15.7853 8.36966 15.7189 8.36966 15.6369V13.8457C8.36966 13.7637 8.30688 13.6973 8.22944 13.6973Z" fill="#CACACA"/>
<path id="Vector_12" d="M11.418 13.6973H9.46444C9.387 13.6973 9.32422 13.7637 9.32422 13.8457V15.6369C9.32422 15.7189 9.387 15.7853 9.46444 15.7853H11.418C11.4954 15.7853 11.5582 15.7189 11.5582 15.6369V13.8457C11.5582 13.7637 11.4954 13.6973 11.418 13.6973Z" fill="#CACACA"/>
<path id="Vector_13" d="M14.6055 13.6973H12.6519C12.5745 13.6973 12.5117 13.7637 12.5117 13.8457V15.6369C12.5117 15.7189 12.5745 15.7853 12.6519 15.7853H14.6055C14.6829 15.7853 14.7457 15.7189 14.7457 15.6369V13.8457C14.7457 13.7637 14.6829 13.6973 14.6055 13.6973Z" fill="#CACACA"/>
</g>
</g>
</g>
</g>
<defs>
<clipPath id="clip0_225_311">
<rect width="17" height="18" fill="white" transform="translate(0.402344 0.218018)"/>
</clipPath>
</defs>
</svg>
