<svg width="19" height="19" viewBox="0 0 19 19" fill="none" xmlns="http://www.w3.org/2000/svg">
<g id="email 1" clip-path="url(#clip0_502_90)">
<g id="Layer 2">
<path id="Vector" d="M9.75008 9.87383L17.9259 5.20218C17.7374 4.71471 17.4061 4.29551 16.9754 3.99946C16.5447 3.70341 16.0347 3.5443 15.512 3.54297H3.98815C3.4655 3.5443 2.95544 3.70341 2.52472 3.99946C2.09401 4.29551 1.76272 4.71471 1.57422 5.20218L9.75008 9.87383Z" fill="#FD0207"/>
<path id="Vector_2" d="M10.0711 11.1723C9.97404 11.2278 9.86413 11.257 9.75229 11.257C9.64045 11.257 9.53055 11.2278 9.43344 11.1723L1.39258 6.5791V13.8048C1.39343 14.4928 1.66713 15.1525 2.15364 15.639C2.64015 16.1255 3.29976 16.3992 3.98779 16.4H15.5117C16.1996 16.399 16.8591 16.1253 17.3456 15.6388C17.8321 15.1523 18.1058 14.4928 18.1069 13.8048V6.5791L10.0711 11.1723Z" fill="#FD0207"/>
</g>
</g>
<defs>
<clipPath id="clip0_502_90">
<rect width="18" height="18" fill="white" transform="translate(0.75 0.97168)"/>
</clipPath>
</defs>
</svg>
