<svg width="16" height="16" viewBox="0 0 16 16" fill="none" xmlns="http://www.w3.org/2000/svg">
<g id="instagram 1" clip-path="url(#clip0_502_120)">
<g id="Group">
<path id="Vector" d="M12.0996 0.291016H4.59961C2.49961 0.291016 0.849609 1.94102 0.849609 4.04102V11.541C0.849609 13.641 2.49961 15.291 4.59961 15.291H12.0996C14.1996 15.291 15.8496 13.641 15.8496 11.541V4.04102C15.8496 1.94102 14.1996 0.291016 12.0996 0.291016ZM14.3496 11.541C14.3496 12.816 13.3746 13.791 12.0996 13.791H4.59961C3.32461 13.791 2.34961 12.816 2.34961 11.541V4.04102C2.34961 2.76602 3.32461 1.79102 4.59961 1.79102H12.0996C13.3746 1.79102 14.3496 2.76602 14.3496 4.04102V11.541Z" fill="white"/>
<path id="Vector_2" d="M8.34961 4.04102C6.24961 4.04102 4.59961 5.69102 4.59961 7.79102C4.59961 9.89102 6.24961 11.541 8.34961 11.541C10.4496 11.541 12.0996 9.89102 12.0996 7.79102C12.0996 5.69102 10.4496 4.04102 8.34961 4.04102ZM8.34961 10.041C7.07461 10.041 6.09961 9.06602 6.09961 7.79102C6.09961 6.51602 7.07461 5.54102 8.34961 5.54102C9.62461 5.54102 10.5996 6.51602 10.5996 7.79102C10.5996 9.06602 9.62461 10.041 8.34961 10.041Z" fill="white"/>
<path id="Vector_3" d="M12.0996 4.79102C12.5138 4.79102 12.8496 4.45523 12.8496 4.04102C12.8496 3.6268 12.5138 3.29102 12.0996 3.29102C11.6854 3.29102 11.3496 3.6268 11.3496 4.04102C11.3496 4.45523 11.6854 4.79102 12.0996 4.79102Z" fill="white"/>
</g>
</g>
<defs>
<clipPath id="clip0_502_120">
<rect width="15" height="15" fill="white" transform="translate(0.849609 0.291016)"/>
</clipPath>
</defs>
</svg>
