<svg width="19" height="18" viewBox="0 0 19 18" fill="none" xmlns="http://www.w3.org/2000/svg">
<g id="leader 1" clip-path="url(#clip0_163_87)">
<g id="Group">
<path id="Vector" d="M7.4487 8.22152C9.66818 8.07474 11.3484 6.1565 11.2017 3.93702C11.0549 1.71754 9.13665 0.0372821 6.91717 0.184062C4.69768 0.330841 3.01743 2.24907 3.16421 4.46856C3.31098 6.68804 5.22922 8.3683 7.4487 8.22152Z" fill="white"/>
<path id="Vector_2" d="M8.59937 12.4484C8.59937 11.0561 9.17185 9.8 10.0945 8.89404C9.80824 8.75509 9.51089 8.63837 9.20242 8.54111C8.58826 8.83013 7.90462 8.99409 7.18208 8.99409C6.45676 8.99409 5.77312 8.82735 5.15618 8.53833C2.42998 9.39982 0.454102 11.9482 0.454102 14.9606V17.8202H13.924V17.42C13.8128 17.4284 13.7016 17.4367 13.5905 17.4367C10.8365 17.4367 8.59937 15.1996 8.59937 12.4484Z" fill="white"/>
<path id="Vector_3" d="M13.5877 8.22986C11.2561 8.22986 9.36914 10.1196 9.36914 12.4484C9.36914 14.78 11.2589 16.6669 13.5877 16.6669C15.9193 16.6669 17.8062 14.7772 17.8062 12.4484C17.8062 10.1196 15.9165 8.22986 13.5877 8.22986ZM16.0443 12.1066L14.9077 12.9319L15.3412 14.2659C15.4607 14.6383 15.0355 14.9467 14.7215 14.7161L13.5849 13.8907L12.4483 14.7161C12.1315 14.9467 11.7063 14.6355 11.8286 14.2659L12.2621 12.9319L11.1255 12.1066C10.8087 11.8759 10.9726 11.3757 11.3617 11.3757H12.7651L13.1986 10.0418C13.3181 9.66938 13.8461 9.66938 13.9656 10.0418L14.3991 11.3757H15.8025C16.1999 11.3785 16.3611 11.8787 16.0443 12.1066Z" fill="white"/>
</g>
</g>
<defs>
<clipPath id="clip0_163_87">
<rect width="17.7856" height="17.7856" fill="white" transform="translate(0.237305 0.104004)"/>
</clipPath>
</defs>
</svg>
