<svg width="18" height="17" viewBox="0 0 18 17" fill="none" xmlns="http://www.w3.org/2000/svg">
<g id="phone-call (4) 1" clip-path="url(#clip0_163_56)">
<g id="Group">
<g id="Group_2">
<path id="Vector" d="M16.7623 12.1601L14.4575 9.85532C13.6344 9.0322 12.2351 9.36148 11.9058 10.4315C11.6589 11.1724 10.8358 11.5839 10.095 11.4193C8.4487 11.0077 6.22626 8.86757 5.8147 7.13901C5.56776 6.39816 6.06164 5.57504 6.80245 5.32813C7.87251 4.99888 8.20176 3.59957 7.37864 2.77644L5.07389 0.471692C4.41539 -0.104496 3.42764 -0.104496 2.85145 0.471692L1.28751 2.03563C-0.276429 3.68188 1.45213 8.04445 5.32083 11.9131C9.18952 15.7818 13.5521 17.5927 15.1983 15.9465L16.7623 14.3825C17.3385 13.724 17.3385 12.7363 16.7623 12.1601Z" fill="#FD0207"/>
</g>
</g>
</g>
<defs>
<clipPath id="clip0_163_56">
<rect width="16.5152" height="16.5152" fill="white" transform="translate(0.696289 0.0395508)"/>
</clipPath>
</defs>
</svg>
