<svg width="17" height="18" viewBox="0 0 17 18" fill="none" xmlns="http://www.w3.org/2000/svg">
<g id="phone-call (2) 1" opacity="0.7" clip-path="url(#clip0_530_215)">
<g id="Group">
<g id="Group_2">
<path id="Vector" d="M13.4357 11.0574C13.0877 10.6769 12.6679 10.4735 12.223 10.4735C11.7816 10.4735 11.3583 10.6732 10.9959 11.0537L9.86207 12.2404C9.76879 12.1876 9.6755 12.1387 9.5858 12.0897C9.45663 12.0219 9.33464 11.9578 9.23059 11.89C8.16855 11.1818 7.20339 10.2587 6.2777 9.06449C5.8292 8.46925 5.52781 7.96819 5.30895 7.45959C5.60316 7.17704 5.87584 6.88319 6.14135 6.60064C6.24182 6.49515 6.34228 6.3859 6.44274 6.28041C7.19622 5.48926 7.19622 4.46454 6.44274 3.67339L5.46323 2.6449C5.352 2.52811 5.23719 2.40756 5.12955 2.287C4.91427 2.05343 4.68823 1.81232 4.45501 1.58627C4.10698 1.22461 3.69077 1.03247 3.25304 1.03247C2.81531 1.03247 2.39193 1.22461 2.03313 1.58627C2.02954 1.59004 2.02954 1.59004 2.02596 1.59381L0.806048 2.88601C0.346788 3.36824 0.0848667 3.95595 0.0274593 4.63784C-0.0586519 5.73791 0.249913 6.76263 0.486719 7.43322C1.06797 9.07956 1.93626 10.6053 3.23151 12.2404C4.80304 14.2107 6.6939 15.7666 8.85386 16.8629C9.67909 17.2736 10.7806 17.7596 12.0113 17.8425C12.0866 17.8462 12.1655 17.85 12.2373 17.85C13.0661 17.85 13.7622 17.5373 14.3076 16.9157C14.3112 16.9081 14.3183 16.9044 14.3219 16.8968C14.5085 16.6595 14.7238 16.4448 14.9498 16.215C15.1041 16.0605 15.262 15.8985 15.4162 15.729C15.7715 15.3409 15.958 14.8888 15.958 14.4255C15.958 13.9583 15.7679 13.51 15.4055 13.1332L13.4357 11.0574ZM14.7202 15.0245C14.7166 15.0245 14.7166 15.0282 14.7202 15.0245C14.5802 15.1827 14.4367 15.3259 14.2824 15.4841C14.0492 15.7177 13.8124 15.9625 13.59 16.2376C13.2276 16.6444 12.8006 16.8366 12.2409 16.8366C12.1871 16.8366 12.1297 16.8366 12.0758 16.8328C11.0102 16.7612 10.0199 16.3242 9.27724 15.9512C7.24645 14.919 5.46323 13.4535 3.9814 11.5962C2.7579 10.0478 1.93985 8.61618 1.39806 7.07909C1.06438 6.14102 0.942391 5.41015 0.99621 4.72072C1.03209 4.27994 1.19355 3.91451 1.49135 3.60181L2.71485 2.31714C2.89066 2.14384 3.07723 2.04966 3.26022 2.04966C3.48626 2.04966 3.66925 2.19282 3.78406 2.31337C3.78765 2.31714 3.79124 2.32091 3.79482 2.32468C4.01369 2.53942 4.22179 2.76169 4.44066 2.99904C4.55188 3.11959 4.6667 3.24015 4.78151 3.36447L5.76103 4.39296C6.14135 4.7923 6.14135 5.1615 5.76103 5.56084C5.65698 5.6701 5.55651 5.77935 5.45246 5.88484C5.15107 6.20883 4.86404 6.51022 4.55188 6.80407C4.54471 6.81161 4.53753 6.81538 4.53394 6.82291C4.22538 7.1469 4.28279 7.46336 4.34737 7.6781C4.35096 7.6894 4.35455 7.70071 4.35813 7.71201C4.61288 8.35999 4.97168 8.97031 5.51705 9.69741L5.52064 9.70118C6.51091 10.9821 7.55501 11.9804 8.70675 12.7452C8.85386 12.8432 9.00455 12.9223 9.14807 12.9976C9.27724 13.0654 9.39923 13.1295 9.50328 13.1973C9.51763 13.2048 9.53198 13.2161 9.54633 13.2237C9.66832 13.2877 9.78314 13.3178 9.90154 13.3178C10.1993 13.3178 10.3859 13.1219 10.4469 13.0579L11.674 11.7695C11.796 11.6414 11.9897 11.4869 12.2158 11.4869C12.4382 11.4869 12.6212 11.6338 12.7324 11.7619C12.736 11.7657 12.736 11.7657 12.7396 11.7695L14.7166 13.8453C15.0862 14.2296 15.0862 14.6251 14.7202 15.0245Z" fill="white"/>
<path id="Vector_2" d="M9.18777 4.24605C10.1278 4.41181 10.9817 4.87897 11.6635 5.59477C12.3452 6.31057 12.7865 7.2072 12.948 8.19425C12.9874 8.44289 13.1919 8.61619 13.4252 8.61619C13.4539 8.61619 13.479 8.61243 13.5077 8.60866C13.7732 8.56345 13.949 8.29973 13.9059 8.02095C13.7122 6.82669 13.174 5.73793 12.3524 4.8752C11.5307 4.01247 10.4938 3.44737 9.3564 3.24393C9.09089 3.19872 8.84332 3.38332 8.79668 3.65834C8.75003 3.93336 8.92226 4.20084 9.18777 4.24605Z" fill="white"/>
<path id="Vector_3" d="M16.981 7.87401C16.6617 5.90745 15.7791 4.11795 14.4228 2.69389C13.0666 1.26982 11.3623 0.343049 9.48937 0.0077538C9.22745 -0.041222 8.97988 0.147146 8.93324 0.422164C8.89018 0.700949 9.06599 0.960897 9.3315 1.00987C11.0035 1.30749 12.5284 2.14008 13.7411 3.40968C14.9538 4.68305 15.7432 6.28418 16.0266 8.03978C16.0661 8.28842 16.2706 8.46172 16.5038 8.46172C16.5326 8.46172 16.5577 8.45795 16.5864 8.45419C16.8483 8.41275 17.0277 8.14903 16.981 7.87401Z" fill="white"/>
</g>
</g>
</g>
<defs>
<clipPath id="clip0_530_215">
<rect width="17" height="17.85" fill="white"/>
</clipPath>
</defs>
</svg>
