<svg width="22" height="21" viewBox="0 0 22 21" fill="none" xmlns="http://www.w3.org/2000/svg">
<g id="pin (4) 1" clip-path="url(#clip0_163_78)">
<g id="Layer 2">
<path id="Vector" d="M15.7031 3.15138C14.8245 2.43196 13.7971 1.9165 12.6952 1.64219C11.5932 1.36787 10.4441 1.34153 9.33077 1.56507C7.89922 1.85857 6.58221 2.55738 5.53662 3.57827C4.49102 4.59917 3.76093 5.8991 3.4333 7.32323C3.10567 8.74736 3.19432 10.2357 3.68868 11.6108C4.18305 12.986 5.06229 14.1901 6.22167 15.0796C7.54538 16.0484 8.67241 17.2606 9.54251 18.6511L10.1354 19.637C10.2107 19.7622 10.3171 19.8658 10.4443 19.9377C10.5714 20.0097 10.7151 20.0475 10.8612 20.0475C11.0073 20.0475 11.1509 20.0097 11.2781 19.9377C11.4053 19.8658 11.5117 19.7622 11.587 19.637L12.1553 18.6901C12.913 17.3582 13.9461 16.2032 15.1856 15.3024C16.1576 14.6336 16.9608 13.7482 17.532 12.7159C18.1032 11.6836 18.4267 10.5328 18.4769 9.35405C18.5272 8.17535 18.3029 7.0011 17.8216 5.92393C17.3404 4.84677 16.6155 3.89618 15.704 3.14714L15.7031 3.15138ZM10.8603 12.4262C10.1903 12.4262 9.53532 12.2275 8.97821 11.8552C8.4211 11.483 7.98688 10.9539 7.73047 10.3349C7.47406 9.71583 7.40697 9.03467 7.53769 8.37751C7.66841 7.72036 7.99106 7.11672 8.46484 6.64293C8.93863 6.16915 9.54227 5.8465 10.1994 5.71578C10.8566 5.58506 11.5377 5.65215 12.1568 5.90856C12.7758 6.16497 13.3049 6.59919 13.6771 7.1563C14.0494 7.71341 14.2481 8.3684 14.2481 9.03843C14.2481 9.93691 13.8912 10.7986 13.2558 11.4339C12.6205 12.0693 11.7588 12.4262 10.8603 12.4262Z" fill="white"/>
</g>
</g>
<defs>
<clipPath id="clip0_163_78">
<rect width="20.3265" height="20.3265" fill="white" transform="translate(0.697266 0.569092)"/>
</clipPath>
</defs>
</svg>
