<svg width="21" height="21" viewBox="0 0 21 21" fill="none" xmlns="http://www.w3.org/2000/svg">
<g id="plus (5) 1" clip-path="url(#clip0_279_437)">
<g id="Group">
<g id="Group_2">
<path id="Vector" d="M19.8809 9.87866H11.4434V1.44116C11.4434 1.00968 11.0936 0.659912 10.6621 0.659912C10.2306 0.659912 9.88086 1.00968 9.88086 1.44116V9.87866H1.44336C1.01188 9.87866 0.662109 10.2284 0.662109 10.6599C0.662109 11.0914 1.01188 11.4412 1.44336 11.4412H9.88086V19.8787C9.88086 20.3101 10.2306 20.6599 10.6621 20.6599C11.0936 20.6599 11.4434 20.3101 11.4434 19.8787V11.4412H19.8809C20.3123 11.4412 20.6621 11.0914 20.6621 10.6599C20.6621 10.2284 20.3123 9.87866 19.8809 9.87866Z" fill="#FDFEFF"/>
</g>
</g>
</g>
<defs>
<clipPath id="clip0_279_437">
<rect width="20" height="20" fill="white" transform="translate(0.662109 0.659912)"/>
</clipPath>
</defs>
</svg>
