<svg width="23" height="22" viewBox="0 0 23 22" fill="none" xmlns="http://www.w3.org/2000/svg">
<g id="sun 1" clip-path="url(#clip0_530_194)">
<g id="Group">
<g id="Group_2">
<g id="Group_3">
<path id="Vector" d="M15.3993 7.10052C14.4099 6.1111 13.013 5.47089 11.4998 5.47089C9.98658 5.47089 8.58975 6.082 7.60033 7.10052C6.61091 8.08993 5.9707 9.48676 5.9707 11C5.9707 12.5132 6.61091 13.91 7.60033 14.8995C8.58975 15.8889 9.98658 16.5291 11.4998 16.5291C13.013 16.5291 14.4099 15.918 15.3993 14.8995C16.3887 13.91 17.0289 12.5132 17.0289 11C17.0289 9.48676 16.4178 8.08993 15.3993 7.10052Z" fill="white"/>
<path id="Vector_2" d="M11.4998 3.75397C11.9072 3.75397 12.2564 3.40476 12.2564 2.99735V0.756614C12.2564 0.349206 11.9072 0 11.4998 0C11.0924 0 10.7432 0.349206 10.7432 0.756614V2.99735C10.7432 3.40476 11.0924 3.75397 11.4998 3.75397Z" fill="white"/>
<path id="Vector_3" d="M17.6985 5.8783L19.299 4.27777C19.59 3.98677 19.59 3.52116 19.299 3.23016C19.008 2.93915 18.5424 2.93915 18.2514 3.23016L16.6509 4.83069C16.3599 5.12169 16.3599 5.5873 16.6509 5.8783C16.9128 6.16931 17.3784 6.16931 17.6985 5.8783Z" fill="white"/>
<path id="Vector_4" d="M21.7434 10.2434H19.5027C19.0953 10.2434 18.7461 10.5926 18.7461 11C18.7461 11.4074 19.0953 11.7566 19.5027 11.7566H21.7434C22.1509 11.7566 22.5001 11.4074 22.5001 11C22.5001 10.5926 22.1509 10.2434 21.7434 10.2434Z" fill="white"/>
<path id="Vector_5" d="M17.6692 16.1217C17.3782 15.8307 16.9126 15.8307 16.6216 16.1217C16.3306 16.4127 16.3306 16.8783 16.6216 17.1693L18.2221 18.7698C18.5131 19.0608 18.9787 19.0608 19.2697 18.7698C19.5607 18.4788 19.5607 18.0132 19.2697 17.7222L17.6692 16.1217Z" fill="white"/>
<path id="Vector_6" d="M11.4998 18.246C11.0924 18.246 10.7432 18.5952 10.7432 19.0026V21.2434C10.7432 21.6508 11.0924 22 11.4998 22C11.9072 22 12.2564 21.6508 12.2564 21.2434V19.0026C12.2564 18.5952 11.9072 18.246 11.4998 18.246Z" fill="white"/>
<path id="Vector_7" d="M5.30121 16.1217L3.70068 17.7222C3.40967 18.0132 3.40967 18.4788 3.70068 18.7698C3.99168 19.0608 4.45729 19.0608 4.7483 18.7698L6.34882 17.1693C6.63983 16.8783 6.63983 16.4127 6.34882 16.1217C6.08692 15.8307 5.62131 15.8307 5.30121 16.1217Z" fill="white"/>
<path id="Vector_8" d="M4.25397 11C4.25397 10.5926 3.90476 10.2434 3.49735 10.2434H1.25661C0.849206 10.2434 0.5 10.5926 0.5 11C0.5 11.4074 0.849206 11.7566 1.25661 11.7566H3.49735C3.90476 11.7566 4.25397 11.4074 4.25397 11Z" fill="white"/>
<path id="Vector_9" d="M5.30121 5.8783C5.59221 6.16931 6.05782 6.16931 6.34882 5.8783C6.63983 5.5873 6.63983 5.12169 6.34882 4.83069L4.7483 3.23016C4.45729 2.93915 3.99168 2.93915 3.70068 3.23016C3.40967 3.52116 3.40967 3.98677 3.70068 4.27777L5.30121 5.8783Z" fill="white"/>
</g>
</g>
</g>
</g>
<defs>
<clipPath id="clip0_530_194">
<rect width="22" height="22" fill="white" transform="translate(0.5)"/>
</clipPath>
</defs>
</svg>
