<svg width="16" height="16" viewBox="0 0 16 16" fill="none" xmlns="http://www.w3.org/2000/svg">
<g id="vk-social-network-logo 1" clip-path="url(#clip0_502_116)">
<g id="Group">
<path id="Vector" d="M15.7701 11.2407C15.7519 11.2015 15.735 11.1691 15.7193 11.1431C15.459 10.6743 14.9617 10.099 14.2276 9.41695L14.2121 9.40133L14.2043 9.39367L14.1964 9.38582H14.1886C13.8554 9.06821 13.6444 8.85465 13.5561 8.74532C13.3944 8.53704 13.3582 8.32622 13.4465 8.11261C13.5089 7.95122 13.7434 7.61038 14.1494 7.08964C14.363 6.81366 14.5321 6.59247 14.657 6.42583C15.5578 5.22825 15.9484 4.46298 15.8285 4.12973L15.782 4.05185C15.7508 4.00496 15.6701 3.96207 15.54 3.92295C15.4097 3.88392 15.2432 3.87746 15.0401 3.90348L12.7909 3.91902C12.7544 3.9061 12.7024 3.90731 12.6346 3.92295C12.5669 3.9386 12.5331 3.94645 12.5331 3.94645L12.4939 3.96601L12.4628 3.98951C12.4368 4.00504 12.4082 4.03237 12.3769 4.07143C12.3458 4.11036 12.3198 4.15604 12.299 4.2081C12.0541 4.8381 11.7757 5.42384 11.4632 5.96529C11.2706 6.28815 11.0936 6.56796 10.9321 6.80488C10.7707 7.04171 10.6353 7.2162 10.5261 7.32806C10.4166 7.44002 10.3179 7.52971 10.2292 7.59747C10.1407 7.66525 10.0731 7.69389 10.0263 7.68342C9.97936 7.67294 9.93518 7.66255 9.89336 7.65215C9.82051 7.60527 9.76192 7.5415 9.71774 7.46081C9.67337 7.38011 9.6435 7.27854 9.62788 7.15619C9.61234 7.03375 9.60315 6.92844 9.60053 6.83989C9.59809 6.75145 9.59921 6.62636 9.60449 6.46497C9.60991 6.3035 9.61234 6.19424 9.61234 6.13696C9.61234 5.93908 9.6162 5.72432 9.62394 5.49263C9.63182 5.26094 9.63819 5.07736 9.64353 4.94212C9.64883 4.80675 9.6513 4.66352 9.6513 4.51252C9.6513 4.36153 9.64211 4.24311 9.62394 4.15716C9.606 4.07132 9.57845 3.988 9.54215 3.90723C9.50563 3.82653 9.45218 3.76411 9.38205 3.71979C9.31177 3.67553 9.2244 3.64041 9.12043 3.61431C8.84445 3.55186 8.49303 3.51808 8.066 3.51283C7.09763 3.50244 6.4754 3.56497 6.19944 3.70034C6.09011 3.75754 5.99117 3.83569 5.9027 3.93455C5.80896 4.04914 5.79589 4.11167 5.86356 4.12196C6.176 4.16876 6.39719 4.28072 6.52737 4.45773L6.57428 4.55153C6.61077 4.61921 6.64721 4.73902 6.68367 4.9108C6.72008 5.08259 6.74358 5.27262 6.75392 5.48079C6.7799 5.86093 6.7799 6.18634 6.75392 6.45704C6.72785 6.72785 6.70323 6.93867 6.67973 7.08966C6.65624 7.24066 6.62111 7.36302 6.57428 7.4567C6.52737 7.55042 6.49616 7.6077 6.48051 7.62849C6.46489 7.64928 6.45187 7.66238 6.44153 7.66752C6.37386 7.69346 6.30347 7.70667 6.23063 7.70667C6.15767 7.70667 6.06921 7.67018 5.9651 7.59725C5.86102 7.52432 5.75299 7.42415 5.64103 7.29657C5.52907 7.16896 5.4028 6.99064 5.26217 6.76157C5.12165 6.53251 4.97586 6.26178 4.82486 5.9494L4.69993 5.72285C4.62183 5.5771 4.51515 5.36489 4.37978 5.08639C4.24432 4.80779 4.12459 4.53829 4.0205 4.27796C3.9789 4.16862 3.91639 4.08538 3.8331 4.0281L3.79401 4.00461C3.76802 3.98382 3.72631 3.96174 3.66908 3.93822C3.61177 3.91472 3.55198 3.89787 3.48944 3.8875L1.34954 3.90304C1.13087 3.90304 0.982497 3.95258 0.904373 4.05152L0.873107 4.09832C0.857487 4.12439 0.849609 4.16603 0.849609 4.22333C0.849609 4.28061 0.865229 4.35091 0.896495 4.43415C1.20888 5.16835 1.5486 5.87641 1.91564 6.55847C2.28268 7.24052 2.60163 7.78994 2.8723 8.20621C3.14303 8.62279 3.41898 9.01596 3.70016 9.38552C3.98133 9.75521 4.16745 9.99213 4.25851 10.0962C4.34969 10.2005 4.4213 10.2784 4.47336 10.3305L4.66864 10.5179C4.79359 10.6429 4.97709 10.7926 5.2192 10.967C5.46137 11.1414 5.72947 11.3132 6.02364 11.4826C6.31786 11.6517 6.66015 11.7896 7.05069 11.8963C7.44117 12.0032 7.82123 12.046 8.19093 12.0254H9.08908C9.27123 12.0096 9.40924 11.9523 9.50303 11.8535L9.53411 11.8143C9.55501 11.7833 9.57457 11.735 9.59262 11.67C9.61089 11.6049 9.61998 11.5332 9.61998 11.4553C9.61464 11.2314 9.63168 11.0297 9.67064 10.8501C9.70956 10.6705 9.75393 10.5351 9.80355 10.444C9.85314 10.3529 9.90911 10.276 9.9714 10.2137C10.0338 10.1512 10.0783 10.1134 10.1044 10.1004C10.1303 10.0873 10.151 10.0784 10.1667 10.0731C10.2916 10.0314 10.4387 10.0718 10.608 10.1942C10.7773 10.3166 10.936 10.4677 11.0845 10.6472C11.2329 10.8269 11.4112 11.0286 11.6194 11.2524C11.8278 11.4763 12.01 11.6428 12.1661 11.7523L12.3222 11.846C12.4265 11.9085 12.5619 11.9658 12.7285 12.0179C12.8949 12.0699 13.0406 12.0829 13.1658 12.0569L15.165 12.0257C15.3628 12.0257 15.5166 11.993 15.6258 11.928C15.7351 11.8629 15.8001 11.7912 15.8211 11.7132C15.842 11.6352 15.8431 11.5466 15.825 11.4476C15.8065 11.3488 15.7883 11.2797 15.7701 11.2407Z" fill="white"/>
</g>
</g>
<defs>
<clipPath id="clip0_502_116">
<rect width="15" height="15" fill="white" transform="translate(0.849609 0.291016)"/>
</clipPath>
</defs>
</svg>
