<svg width="19" height="20" viewBox="0 0 19 20" fill="none" xmlns="http://www.w3.org/2000/svg">
<g id="wallet (6) 1">
<path id="Vector" d="M16.7764 6.77566H3.98644C3.65809 6.77566 3.39269 6.50966 3.39269 6.18191C3.39269 5.85416 3.65809 5.58816 3.98644 5.58816H14.4198V3.36159C14.4198 3.04513 14.2779 2.75003 14.0309 2.55231C13.7827 2.35341 13.4615 2.28156 13.1551 2.35044L1.99619 4.85606C1.52059 4.96294 1.1875 5.37916 1.1875 5.86722V17.5065C1.1875 18.0777 1.65241 18.5432 2.22359 18.5432H16.7764C17.3476 18.5432 17.8125 18.0783 17.8125 17.5065V7.81175C17.8125 7.24056 17.3476 6.77566 16.7764 6.77566ZM14.9067 13.7178C14.3515 13.7178 13.9003 13.2659 13.9003 12.7108C13.9003 12.1556 14.3521 11.7038 14.9067 11.7038C15.4624 11.7038 15.9137 12.1556 15.9137 12.7108C15.9137 13.2659 15.4624 13.7178 14.9067 13.7178Z" fill="white"/>
</g>
</svg>
