<svg width="17" height="18" viewBox="0 0 17 18" fill="none" xmlns="http://www.w3.org/2000/svg">
<g id="water-waves 1">
<g id="Group">
<g id="Group_2">
<path id="Vector" d="M15.2067 5.17445C14.7397 5.17445 14.366 5.04368 14.0484 4.78215C13.8803 4.65138 13.7309 4.50193 13.5814 4.35248C13.488 4.25907 13.3759 4.16566 13.2638 4.09094C13.0583 3.94149 12.8342 3.9228 12.61 4.07226C12.4605 4.16566 12.3298 4.27775 12.2177 4.38984C12.0869 4.52061 11.9375 4.65138 11.788 4.76346C11.0968 5.30522 10.2375 5.30522 9.54625 4.76346C9.3968 4.6327 9.24735 4.50193 9.11658 4.37116C9.00449 4.25907 8.8924 4.14698 8.74295 4.07226C8.55614 3.96017 8.36933 3.94149 8.18251 4.05357C8.01438 4.14698 7.86493 4.27775 7.73416 4.40852C7.58471 4.53929 7.45394 4.67006 7.30449 4.78215C6.61328 5.30522 5.75394 5.30522 5.08142 4.74478C4.93196 4.61401 4.78251 4.48324 4.65174 4.35248C4.55834 4.25907 4.44625 4.16566 4.33416 4.07226C4.10999 3.9228 3.90449 3.92281 3.699 4.05357C3.51218 4.16566 3.36273 4.31511 3.1946 4.46456C2.98911 4.65138 2.78361 4.83819 2.54076 4.96896C1.88691 5.28654 1.25174 5.2305 0.672624 4.80083C0.485811 4.67006 0.33636 4.52061 0.18691 4.37116C9.64329e-05 4.18434 -0.0185849 3.88544 0.168228 3.69863C0.355041 3.51182 0.635261 3.51182 0.840756 3.69863C0.952844 3.81072 1.06493 3.90412 1.17702 4.01621C1.47592 4.29643 1.92427 4.31511 2.26054 4.03489C2.44735 3.88544 2.61548 3.71731 2.78361 3.56786C2.98911 3.38105 3.1946 3.2316 3.45614 3.13819C3.90449 2.97006 4.31548 3.00742 4.72647 3.25028C4.93196 3.36237 5.11878 3.51182 5.28691 3.67995C5.399 3.79204 5.51109 3.90412 5.64185 3.99753C5.97812 4.31511 6.44515 4.31511 6.8001 3.97885C6.98691 3.81072 7.15504 3.64259 7.34185 3.49313C7.60339 3.26896 7.88361 3.10083 8.23856 3.04478C8.63087 2.97006 8.98581 3.08215 9.32207 3.30632C9.49021 3.41841 9.63966 3.5305 9.77043 3.67995C9.91988 3.81072 10.0506 3.96017 10.2188 4.09094C10.4616 4.27775 10.8539 4.29643 11.0968 4.1283C11.321 3.97885 11.5078 3.79204 11.6946 3.60522C11.9001 3.43709 12.1056 3.26896 12.3484 3.15687C12.8155 2.95138 13.2638 2.98874 13.6935 3.25028C13.8803 3.36237 14.0671 3.51182 14.2166 3.66127C14.3473 3.77335 14.4594 3.88544 14.5902 4.01621C14.8891 4.29643 15.3561 4.31511 15.6924 4.01621C15.8605 3.88544 16.01 3.73599 16.1594 3.58654C16.3649 3.41841 16.6265 3.41841 16.8133 3.60522C16.9627 3.75467 17.0188 4.03489 16.8693 4.20302C16.5331 4.57665 16.1781 4.91291 15.6737 5.09973C15.5056 5.13709 15.3375 5.15577 15.2067 5.17445Z" fill="#CACACA"/>
<path id="Vector_2" d="M15.0201 11.9744C14.7399 11.9744 14.3849 11.8623 14.0673 11.6007C13.8992 11.47 13.7311 11.3205 13.5816 11.1524C13.4695 11.0403 13.3574 10.9469 13.2267 10.8535C13.0399 10.7227 12.853 10.704 12.6476 10.8161C12.4607 10.9282 12.2926 11.0777 12.1432 11.2271C11.919 11.4326 11.7135 11.6381 11.4519 11.7502C10.8355 12.0491 10.219 11.993 9.65854 11.6007C9.45305 11.47 9.28491 11.3018 9.11678 11.1337C9.00469 11.0216 8.89261 10.9282 8.76184 10.8348C8.57502 10.704 8.38821 10.6853 8.18272 10.7974C7.9959 10.9095 7.82777 11.059 7.67832 11.2084C7.41678 11.4513 7.15524 11.6941 6.8003 11.8249C6.22118 12.0304 5.66074 11.9557 5.15634 11.5821C4.96953 11.4513 4.8014 11.2831 4.63327 11.115C4.52118 11.0029 4.40909 10.9095 4.27832 10.8161C4.09151 10.704 3.90469 10.6853 3.71788 10.7974C3.51239 10.9095 3.36294 11.059 3.1948 11.2084C3.00799 11.3952 2.8025 11.5634 2.57832 11.6941C1.96184 12.0491 1.21458 11.993 0.654144 11.5447C0.486013 11.4139 0.317881 11.2645 0.16843 11.0963C-0.018383 10.9095 -0.018383 10.6293 0.16843 10.4425C0.336562 10.2557 0.635463 10.2557 0.822276 10.4238C0.953046 10.5359 1.06513 10.6667 1.1959 10.7601C1.4948 11.0216 1.84975 11.0403 2.18601 10.8161C2.39151 10.6853 2.55964 10.4985 2.72777 10.3491C2.95195 10.1436 3.1948 9.97546 3.47502 9.86337C3.92338 9.69524 4.33436 9.7326 4.72667 9.97546C4.91349 10.0875 5.1003 10.237 5.26843 10.3864C5.3992 10.4985 5.51129 10.6293 5.64206 10.7414C5.997 11.0403 6.38931 11.0403 6.74425 10.7414C6.8937 10.6106 7.04316 10.4612 7.21129 10.3304C7.49151 10.0875 7.80909 9.88205 8.18272 9.78864C8.53766 9.71392 8.87393 9.78864 9.19151 9.97546C9.41568 10.1062 9.62118 10.293 9.80799 10.4799C9.9014 10.5733 9.9948 10.6667 10.0882 10.7414C10.4618 11.059 10.8728 11.059 11.2465 10.7227C11.4333 10.5546 11.6201 10.3864 11.8069 10.2183C12.0871 9.99414 12.386 9.80733 12.7596 9.76996C13.0772 9.7326 13.3761 9.80733 13.6377 9.95678C13.8432 10.0689 14.03 10.237 14.1981 10.3864C14.3289 10.5172 14.4596 10.6293 14.5904 10.7601C14.8519 11.0029 15.2816 11.0216 15.5805 10.7974C15.786 10.648 15.9541 10.4612 16.141 10.3117C16.3838 10.1062 16.7388 10.1623 16.8695 10.4425C16.9629 10.6293 16.9256 10.8535 16.7574 11.0029C16.6267 11.2645 16.4585 11.4326 16.253 11.5821C15.9355 11.8249 15.5618 11.9744 15.0201 11.9744Z" fill="#CACACA"/>
<path id="Vector_3" d="M15.1507 8.57441C14.7397 8.57441 14.3661 8.44364 14.0485 8.1821C13.8991 8.05133 13.7496 7.92056 13.6002 7.77111C13.4881 7.65902 13.3573 7.54694 13.2265 7.47221C13.0584 7.36012 12.8716 7.36012 12.6848 7.45353C12.498 7.56562 12.3298 7.71507 12.1617 7.86452C11.9562 8.07001 11.732 8.25683 11.4705 8.3876C10.8353 8.70518 10.2189 8.64913 9.62105 8.23814C9.43424 8.10738 9.26611 7.93924 9.09797 7.77111C8.98589 7.65902 8.8738 7.56562 8.74303 7.47221C8.55622 7.36012 8.38808 7.34144 8.20127 7.45353C8.0705 7.52826 7.93973 7.62166 7.82764 7.71507C7.65951 7.86452 7.49138 8.03265 7.30457 8.16342C6.61336 8.70518 5.73534 8.70518 5.06281 8.16342C4.91336 8.03265 4.76391 7.90188 4.61446 7.75243C4.50237 7.64034 4.39028 7.54694 4.25951 7.45353C4.09138 7.34144 3.90457 7.34144 3.73644 7.43485C3.58698 7.50957 3.45622 7.62166 3.32545 7.73375C3.15731 7.8832 3.00786 8.03265 2.83973 8.16342C2.1672 8.70518 1.21446 8.66781 0.597974 8.14474C0.467205 8.03265 0.317754 7.90188 0.186985 7.75243C0.000171706 7.56562 0.000171706 7.26672 0.186985 7.09858C0.373798 6.91177 0.654018 6.91177 0.840831 7.0799C0.9716 7.21067 1.10237 7.34144 1.25182 7.45353C1.51336 7.65902 1.8683 7.67771 2.14852 7.50957C2.35402 7.3788 2.52215 7.19199 2.70896 7.04254C2.93314 6.83705 3.176 6.65023 3.45622 6.53814C3.90457 6.35133 4.35292 6.38869 4.76391 6.65023C4.98808 6.781 5.1749 6.94913 5.36171 7.13595C5.4738 7.24804 5.5672 7.34144 5.69797 7.43485C5.99687 7.69639 6.35182 7.71507 6.68808 7.49089C6.89358 7.36012 7.06171 7.17331 7.22984 7.02386C7.43534 6.83705 7.67819 6.66891 7.93973 6.55683C8.38808 6.37001 8.83644 6.40738 9.24742 6.66891C9.54632 6.85573 9.78918 7.11727 10.0507 7.36012C10.1815 7.49089 10.3309 7.60298 10.5178 7.64034C10.8167 7.69639 11.0595 7.60298 11.265 7.39749C11.4145 7.26672 11.5639 7.13595 11.6947 7.00518C11.9189 6.81836 12.143 6.65023 12.4232 6.53814C12.8529 6.37001 13.2826 6.42606 13.6749 6.65023C13.8804 6.781 14.0672 6.93045 14.2353 7.09858C14.3474 7.21067 14.4595 7.30408 14.5716 7.41617C14.9452 7.73375 15.3562 7.73375 15.7298 7.41617C15.8793 7.2854 16.0101 7.15463 16.1595 7.02386C16.365 6.83705 16.6452 6.83705 16.832 7.04254C17.0189 7.22935 17.0002 7.50957 16.8134 7.69639C16.5518 7.93924 16.309 8.20078 15.9914 8.36891C15.7298 8.49968 15.4496 8.57441 15.1507 8.57441Z" fill="#CACACA"/>
<path id="Vector_4" d="M15.0572 15.3745C14.6275 15.3932 14.2165 15.1503 13.8616 14.814C13.6748 14.6459 13.5066 14.4404 13.3011 14.3096C13.0583 14.1415 12.8715 14.1228 12.6286 14.291C12.4418 14.403 12.2924 14.5525 12.1429 14.7019C11.9374 14.9074 11.7132 15.0943 11.4517 15.225C10.8352 15.5052 10.2374 15.4679 9.67697 15.0756C9.49015 14.9448 9.32202 14.7767 9.15389 14.6085C9.0418 14.4964 8.92972 14.403 8.79895 14.3096C8.59345 14.1789 8.40664 14.1602 8.20114 14.291C8.01433 14.403 7.86488 14.5525 7.69675 14.7019C7.49125 14.8888 7.30444 15.0756 7.06158 15.2063C6.4451 15.5426 5.71653 15.4866 5.17477 15.0569C4.98796 14.9074 4.81982 14.7393 4.63301 14.5712C4.52092 14.4778 4.40884 14.3844 4.29675 14.3096C4.12862 14.2162 3.96048 14.1975 3.77367 14.291C3.6429 14.3657 3.51213 14.4591 3.40004 14.5712C3.11983 14.814 2.87697 15.0943 2.52202 15.2624C1.90554 15.5426 1.30774 15.5052 0.747298 15.1129C0.541803 14.9822 0.373671 14.7954 0.20554 14.6272C0.0187264 14.4404 0.0187264 14.1602 0.20554 13.9734C0.392353 13.7866 0.672572 13.7679 0.859386 13.9547C0.990155 14.0855 1.12092 14.2162 1.27037 14.3283C1.56928 14.5525 1.88686 14.5712 2.20444 14.3657C2.39125 14.2536 2.5407 14.0855 2.70884 13.936C2.95169 13.7118 3.23191 13.5063 3.5495 13.3943C3.99785 13.2261 4.40884 13.2822 4.80114 13.525C4.98796 13.6371 5.17477 13.7866 5.3429 13.9547C5.47367 14.0668 5.58576 14.1975 5.71653 14.3096C6.01543 14.5712 6.37038 14.5899 6.70664 14.3657C6.91213 14.2349 7.06158 14.0481 7.2484 13.8986C7.47257 13.6932 7.73411 13.5063 8.01433 13.4129C8.444 13.2448 8.85499 13.3008 9.26598 13.525C9.47147 13.6371 9.63961 13.7866 9.80774 13.9547C9.93851 14.0855 10.0693 14.2162 10.2187 14.3283C10.5176 14.5712 10.8726 14.5899 11.1902 14.3657C11.3956 14.2349 11.5451 14.0481 11.7319 13.8986C11.9561 13.7118 12.1803 13.5437 12.4418 13.4316C12.8902 13.2448 13.3385 13.2822 13.7495 13.5437C13.9737 13.6745 14.1605 13.8426 14.3286 14.0107C14.422 14.1041 14.5154 14.1975 14.6275 14.2723C15.0011 14.5899 15.3935 14.5899 15.7671 14.2723C15.9165 14.1415 16.066 14.0107 16.1967 13.88C16.477 13.6371 16.9066 13.7492 16.9814 14.1041C17.0187 14.2536 17 14.403 16.888 14.4964C16.6077 14.7767 16.3275 15.0569 15.9726 15.2437C15.6924 15.3184 15.4308 15.3745 15.0572 15.3745Z" fill="#CACACA"/>
</g>
</g>
</g>
</svg>
