<svg width="16" height="16" viewBox="0 0 16 16" fill="none" xmlns="http://www.w3.org/2000/svg">
<g id="whatsapp (1) 1" clip-path="url(#clip0_502_108)">
<g id="Group">
<g id="Group_2">
<path id="Vector" d="M8.35148 0.291016H8.34773C4.21242 0.291016 0.849609 3.65477 0.849609 7.79102C0.849609 9.43164 1.37836 10.9523 2.27742 12.187L1.34273 14.9732L4.22555 14.0516C5.41148 14.8373 6.82617 15.291 8.35148 15.291C12.4868 15.291 15.8496 11.9263 15.8496 7.79102C15.8496 3.6557 12.4868 0.291016 8.35148 0.291016ZM12.7155 10.882C12.5346 11.3929 11.8165 11.8166 11.2437 11.9404C10.8518 12.0238 10.3399 12.0904 8.6168 11.376C6.41273 10.4629 4.99336 8.2232 4.88273 8.07789C4.7768 7.93258 3.99211 6.89195 3.99211 5.8157C3.99211 4.73945 4.53867 4.21539 4.75898 3.99039C4.93992 3.8057 5.23898 3.72133 5.52586 3.72133C5.61867 3.72133 5.70211 3.72602 5.77711 3.72977C5.99742 3.73914 6.10805 3.75227 6.25336 4.10008C6.4343 4.53602 6.87492 5.61227 6.92742 5.72289C6.98086 5.83352 7.0343 5.98352 6.9593 6.12883C6.88898 6.27883 6.82711 6.34539 6.71648 6.47289C6.60586 6.60039 6.50086 6.69789 6.39023 6.83477C6.28898 6.95383 6.17461 7.08133 6.30211 7.30164C6.42961 7.51727 6.87023 8.23633 7.51898 8.81383C8.35617 9.55914 9.03492 9.79727 9.27773 9.89852C9.45867 9.97352 9.6743 9.9557 9.80648 9.81508C9.9743 9.63414 10.1815 9.33414 10.3924 9.03883C10.5424 8.82695 10.7318 8.8007 10.9305 8.8757C11.133 8.94602 12.2046 9.4757 12.4249 9.58539C12.6452 9.69602 12.7905 9.74852 12.844 9.84133C12.8965 9.93414 12.8965 10.3701 12.7155 10.882Z" fill="white"/>
</g>
</g>
</g>
<defs>
<clipPath id="clip0_502_108">
<rect width="15" height="15" fill="white" transform="translate(0.849609 0.291016)"/>
</clipPath>
</defs>
</svg>
